<svg id="Layer_1" enable-background="new 0 0 496.025 496.025" height="512" viewBox="0 0 496.025 496.025" width="512" xmlns="http://www.w3.org/2000/svg"><g><g><path d="m485.767 44.461c-29.882 69.036-157.836 364.592-185.56 428.63-8.22 18.95-34.65 20.15-44.54 2.01-3.4-7.735-65.27-148.507-71.67-163.07l-163.07-71.67c-18.14-9.89-16.94-36.32 2.01-44.54l428.63-185.56c21.63-9.38 43.58 12.57 34.2 34.2z" fill="#a2d0ff"/></g><g><path d="m467.137 87.501-166.93 385.59c-8.22 18.95-34.65 20.15-44.54 2.01l-62.37-141.91c82.117-8.198 149.044-61.876 177.92-133.21 9.64-23.83 15.36-50.01 31.65-69.89 10.39-12.67 24.4-21.85 38.72-29.82 8.3-4.63 16.83-8.92 25.55-12.77z" fill="#8bc4ff"/></g><g><path d="m153.297 183.757c9.318-2.421 16.331-13.105 25.824-11.506 2.371.399 4.76 1.806 5.505 4.092 1.008 3.091-1.348 6.327-4.096 8.065-2.747 1.738-6.003 2.647-8.517 4.709-7.709 6.325-8.908 16.222-18.652 21.256-7.448 3.848-17.75 4.94-25.251.457-7.01-4.19-8.87-10.682-4.446-17.736 7.239-11.538 18.903-6.549 29.633-9.337z" fill="#fff"/></g><g><path d="m226.269 165.072c5.414-2.565 11.702-2.036 17.692-1.9 21.687.494 43.481-5.033 62.311-15.802 5.765-3.297 11.503-7.352 14.378-13.339 2.874-5.987 1.806-14.315-3.893-17.725-2.161-1.293-4.713-1.759-7.219-2.002-8.267-.804-16.738.593-24.309 4.008-11.977 5.404-18.314 13.375-39.423 26.817-4.684 2.983-9.552 5.86-14.943 7.191-8.839 2.181-33.874.571-31.878 16.509 2.116 16.893 21.601-1.065 27.284-3.757z" fill="#fff"/></g></g><g fill="#2e58ff"><path d="m201.58 360.033c5.728 0 9.652-5.913 7.319-11.221l-15.378-34.992 60.132-60.132c3.124-3.124 3.124-8.19 0-11.314s-8.189-3.124-11.313 0l-60.132 60.132-31.045-13.643c-4.048-1.779-8.765.061-10.542 4.105-1.778 4.045.06 8.765 4.105 10.543l33.201 14.591 16.326 37.148c1.317 2.997 4.25 4.783 7.327 4.783z"/><path d="m448.386 2.915-428.625 185.57c-25.028 10.845-26.683 45.804-2.665 58.904.47.256 11.609 5.134 36.257 15.966 4.045 1.778 8.765-.061 10.542-4.105 1.778-4.045-.06-8.765-4.105-10.543l-35.305-15.516c-12.01-6.819-11.156-24.482 1.634-30.024l428.625-185.57c14.975-6.49 30.177 8.706 23.686 23.688l-185.568 428.621c-5.563 12.837-23.237 13.596-30.026 1.636l-11.918-27.119c-1.777-4.044-6.498-5.883-10.542-4.105s-5.883 6.498-4.105 10.543c12.898 29.348 12.126 27.626 12.369 28.072 13.078 23.976 48.043 22.4 58.905-2.667l185.567-428.622c12.259-28.289-16.398-57.005-44.726-44.729z"/><path d="m125.654 250.374c-3.124-3.125-8.189-3.125-11.313 0l-72 72c-5.055 5.054-1.406 13.657 5.657 13.657 2.047 0 4.095-.781 5.657-2.343l72-72c3.123-3.124 3.123-8.19-.001-11.314z"/><path d="m277.654 346.374c-3.124-3.125-8.189-3.125-11.313 0l-84 84c-5.055 5.054-1.406 13.657 5.657 13.657 2.047 0 4.095-.781 5.657-2.343l84-84c3.123-3.124 3.123-8.19-.001-11.314z"/><path d="m130.34 354.374-64 64c-3.125 3.124-3.125 8.19 0 11.314 3.124 3.124 8.189 3.124 11.313 0l64-64c3.125-3.124 3.125-8.19 0-11.314-3.123-3.124-8.189-3.124-11.313 0z"/></g></svg>