<svg xmlns="http://www.w3.org/2000/svg" viewBox="0 0 154.02 158.29"><defs><linearGradient id="a099952f3-63b4-492c-a17e-277820b0b46c" y1="79.15" x2="154.02" y2="79.15" gradientUnits="userSpaceOnUse"><stop offset="0" stop-color="#2f72a3"/><stop offset=".99" stop-color="#21d8a3"/></linearGradient></defs><g><path d="M111.87 140.86H62.3a18.85 18.85 0 0 1-16.3-9.39L21.25 88.54a18.85 18.85 0 0 1 0-18.78L46 26.83a18.85 18.85 0 0 1 16.3-9.39h5.54A17.76 17.76 0 0 1 81.6 24H62.3a12.25 12.25 0 0 0-10.62 6.13L26.9 73a12.28 12.28 0 0 0 0 12.26l24.79 42.93a12.29 12.29 0 0 0 10.62 6.13h49.57a12.27 12.27 0 0 0 10.62-6.13l5.35-9.27a1.35 1.35 0 0 0-.19-1.6l-6.22-6.66a1.36 1.36 0 0 0-1.15-.42 1.39 1.39 0 0 0-1 .67l-4.29 7.45a9.12 9.12 0 0 1-7.88 4.55h-40a9.12 9.12 0 0 1-7.88-4.55l-20-34.67a9.11 9.11 0 0 1 0-9.09l20-34.67a9.11 9.11 0 0 1 7.88-4.54h40a9.1 9.1 0 0 1 7.88 4.55l6.32 11a1.46 1.46 0 0 0 .8.62 6.45 6.45 0 1 1-7.44 2.44 1.43 1.43 0 0 0 0-1.49l-5.36-9.28a2.59 2.59 0 0 0-2.23-1.29h-40a2.59 2.59 0 0 0-2.23 1.29l-20 34.67a2.57 2.57 0 0 0 0 2.57l20 34.67a2.59 2.59 0 0 0 2.23 1.29h40a2.57 2.57 0 0 0 2.23-1.29l8.47-14.66 17.91 17.91-7.58 13.12a18.77 18.77 0 0 1-16.25 9.35zM13.94 60.59L39 17.17A21.38 21.38 0 0 1 57.46 6.52h59.25a21.3 21.3 0 0 1 18.46 10.66l5 8.61a1.36 1.36 0 0 1-.32 1.73l-6.47 5.21a1.36 1.36 0 0 1-1.1.28 1.41 1.41 0 0 1-.93-.66l-3.19-5.52a18.77 18.77 0 0 0-16.26-9.39h-26A17.77 17.77 0 0 0 99.6 24h12.27a12.25 12.25 0 0 1 10.62 6.13l8.45 14.63 5.45-5.46.53-.35c.62-.28 3.34-3.17 5.46-5.63l6.09-6.1-7.66-13.26A27.82 27.82 0 0 0 116.71 0H57.46a27.89 27.89 0 0 0-24.1 13.92L13 49.16a10.07 10.07 0 0 0 .93 11.43zM71 151.77H57.45A21.31 21.31 0 0 1 39 141.12L9.37 89.8a21.39 21.39 0 0 1-1.16-19 6.49 6.49 0 0 0-1-6.66l-1.65-2.08-1.83 3.17a27.84 27.84 0 0 0 0 27.83l29.63 51.32a27.9 27.9 0 0 0 24.1 13.91A17.32 17.32 0 0 0 70.85 152zm75.51-30.54a6.64 6.64 0 0 0-5.29 5.31 5.49 5.49 0 0 0 .18 2.89 1.43 1.43 0 0 1-.11 1.11l-6.11 10.58a21.32 21.32 0 0 1-18.46 10.65H88.76a17.28 17.28 0 0 0-13.38 6.35l-.15.17h41.48a27.83 27.83 0 0 0 24.1-13.91l5.56-9.63a1.34 1.34 0 0 1 1.23-.68 6.46 6.46 0 1 0-1.1-12.84z" fill="url(#a099952f3-63b4-492c-a17e-277820b0b46c)"/></g></svg>